<?xml version="1.0" encoding="UTF-8" standalone="no"?>
<svg width="170px" height="118px" viewBox="0 0 170 118" version="1.1" xmlns="http://www.w3.org/2000/svg" xmlns:xlink="http://www.w3.org/1999/xlink">
    <!-- Generator: Sketch 39.1 (31720) - http://www.bohemiancoding.com/sketch -->
    <title>Artboard Copy 3</title>
    <desc>Created with Sketch.</desc>
    <defs>
        <rect id="path-1" x="15.1572266" y="41.673584" width="169.685547" height="116.652832" rx="4"></rect>
        <mask id="mask-2" maskContentUnits="userSpaceOnUse" maskUnits="objectBoundingBox" x="0" y="0" width="169.685547" height="116.652832" fill="white">
            <use xlink:href="#path-1"></use>
        </mask>
    </defs>
    <g id="Page-1" stroke="none" stroke-width="1" fill="none" fill-rule="evenodd">
        <g id="Artboard-Copy-3" transform="translate(-15.000000, -41.000000)">
            <use id="Rectangle-30-Copy-2" stroke="#000000" mask="url(#mask-2)" stroke-width="8" fill="#494949" xlink:href="#path-1"></use>
            <rect id="Rectangle-2" fill="#D8D8D8" x="25" y="51" width="50" height="4"></rect>
            <rect id="Rectangle-2-Copy" fill="#939393" x="29.1582031" y="59" width="12.5" height="4"></rect>
            <rect id="Rectangle-2-Copy-8" fill="#5E5E5E" x="45.8164062" y="59" width="33.3417969" height="4"></rect>
            <rect id="Rectangle-2-Copy-2" fill="#D8D8D8" x="35.4082031" y="67" width="25" height="4"></rect>
            <rect id="Rectangle-2-Copy-3" fill="#D8D8D8" x="35.4082031" y="75" width="58.3164062" height="4"></rect>
            <rect id="Rectangle-2-Copy-4" fill="#D8D8D8" x="35.4082031" y="83" width="68.5664062" height="4"></rect>
            <rect id="Rectangle-2-Copy-5" fill="#939393" x="29.1582031" y="91" width="12.5" height="4"></rect>
            <rect id="Rectangle-2-Copy-6" fill="#939393" x="29.1582031" y="99" width="20.8417969" height="4"></rect>
            <rect id="Rectangle-2-Copy-11" fill="#5E5E5E" x="54.0664062" y="99" width="25" height="4"></rect>
            <rect id="Rectangle-2-Copy-7" fill="#D8D8D8" x="35.4082031" y="107" width="50" height="4"></rect>
            <rect id="Rectangle-2-Copy-9" fill="#D8D8D8" x="35.4082031" y="115" width="128.111328" height="4"></rect>
            <rect id="Rectangle-2-Copy-10" fill="#D8D8D8" x="35.9443359" y="123" width="128.111328" height="4"></rect>
            <rect id="Rectangle-2-Copy-12" fill="#D8D8D8" x="35.9443359" y="131" width="64.0556641" height="4"></rect>
            <rect id="Rectangle-2-Copy-13" fill="#D8D8D8" x="103.974609" y="131" width="4.3046875" height="4"></rect>
        </g>
    </g>
</svg>