<?xml version="1.0" encoding="UTF-8" standalone="no"?>
<svg width="200px" height="200px" viewBox="0 0 200 200" version="1.1" xmlns="http://www.w3.org/2000/svg" xmlns:xlink="http://www.w3.org/1999/xlink">
    <!-- Generator: Sketch 39.1 (31720) - http://www.bohemiancoding.com/sketch -->
    <title>Artboard</title>
    <desc>Created with Sketch.</desc>
    <defs>
        <rect id="path-1" x="20.4785491" y="32.3155186" width="79.5942216" height="84.8124292" rx="4"></rect>
        <mask id="mask-2" maskContentUnits="userSpaceOnUse" maskUnits="objectBoundingBox" x="0" y="0" width="79.5942216" height="84.8124292" fill="white">
            <use xlink:href="#path-1"></use>
        </mask>
        <rect id="path-3" x="104.089136" y="32.3155186" width="79.5942216" height="84.8124292" rx="4"></rect>
        <mask id="mask-4" maskContentUnits="userSpaceOnUse" maskUnits="objectBoundingBox" x="0" y="0" width="79.5942216" height="84.8124292" fill="white">
            <use xlink:href="#path-3"></use>
        </mask>
        <rect id="path-5" x="62.8766162" y="120.868864" width="74.3923089" height="21.7215908" rx="4"></rect>
        <mask id="mask-6" maskContentUnits="userSpaceOnUse" maskUnits="objectBoundingBox" x="0" y="0" width="74.3923089" height="21.7215908" fill="white">
            <use xlink:href="#path-5"></use>
        </mask>
        <rect id="path-7" x="62.8766162" y="146.185737" width="74.3923089" height="21.7215908" rx="4"></rect>
        <mask id="mask-8" maskContentUnits="userSpaceOnUse" maskUnits="objectBoundingBox" x="0" y="0" width="74.3923089" height="21.7215908" fill="white">
            <use xlink:href="#path-7"></use>
        </mask>
    </defs>
    <g id="Page-1" stroke="none" stroke-width="1" fill="none" fill-rule="evenodd">
        <g id="Artboard">
            <use id="Rectangle-30-Copy-2" stroke="#979797" mask="url(#mask-2)" stroke-width="8" fill="#D3D3D3" xlink:href="#path-1"></use>
            <use id="Rectangle-30-Copy-3" stroke="#979797" mask="url(#mask-4)" stroke-width="8" fill="#D3D3D3" xlink:href="#path-3"></use>
            <use id="Rectangle-30-Copy-4" stroke="#979797" mask="url(#mask-6)" stroke-width="8" fill="#D4D4D4" xlink:href="#path-5"></use>
            <use id="Rectangle-30-Copy-5" stroke="#979797" mask="url(#mask-8)" stroke-width="8" fill="#D4D4D4" xlink:href="#path-7"></use>
            <path d="M56.2592941,19.6212812 C56.2592941,14.0935252 60.7403587,9.61239355 66.2685269,9.61239355 L133.877014,9.61239355 C139.404961,9.61239355 143.886247,14.0808995 143.886247,19.6212812 L143.886247,180.373879 C143.886247,185.901635 139.405182,190.382767 133.877014,190.382767 L66.2685269,190.382767 C60.7405802,190.382767 56.2592941,185.914261 56.2592941,180.373879 L56.2592941,19.6212812 Z M60.2756598,28.3155186 L139.869881,28.3155186 L139.869881,171.166016 L60.2756598,171.166016 L60.2756598,28.3155186 Z" id="Combined-Shape" fill="#494949"></path>
        </g>
    </g>
</svg>